<svg xmlns="http://www.w3.org/2000/svg" viewBox="0 0 40 40"><defs><style>.cls-1{fill:#fff;}</style></defs><title>Ativo 2</title><g id="Camada_2" data-name="Camada 2"><g id="Camada_1-2" data-name="Camada 1"><path class="cls-1" d="M37.13,33.32V5.79L2.87,0V33.32H0V40H40V33.32ZM5,2.2,35,7.27V32.35H5Zm32.87,36H2.13V35.13H37.87Z"/><path class="cls-1" d="M21.85,12.3a1.19,1.19,0,0,1,.44.08.51.51,0,0,1,.25.18h.57a1,1,0,0,1,.43.09.58.58,0,0,1,.26.22,1.87,1.87,0,0,1,.45.1.37.37,0,0,1,.23.26.6.6,0,0,1,.29.24.55.55,0,0,1,.35.29c.16.07.25.16.26.26.23.07.34.19.34.35l0,.22q.33.13.33.33l0,.53c.18.09.27.19.27.29v2.45a.37.37,0,0,1-.29.38V19c0,.19-.13.31-.38.35a.41.41,0,0,1-.28.29v.18a.28.28,0,0,1-.09.2.55.55,0,0,1-.2.15c0,.15-.15.24-.35.29a.37.37,0,0,1-.22.24,1.33,1.33,0,0,1-.42.06.63.63,0,0,1-.62.31.83.83,0,0,1-.71.27l-.59.06a.86.86,0,0,1-.64.22l-3.93,0v2.64c0,.5,0,1,0,1.49s0,1,0,1.49c0,.11-.08.2-.22.28a1.12,1.12,0,0,1-.53.12H14.38a1,1,0,0,1-.52-.12c-.14-.08-.21-.17-.21-.28V12.72a.35.35,0,0,1,.21-.3,1,1,0,0,1,.52-.12Zm-4.21,6.6h2.91a.54.54,0,0,1,.27-.18,2,2,0,0,1,.39-.09h.31a.68.68,0,0,1,.27-.15.28.28,0,0,1,.26-.29s0-.06,0-.1a.49.49,0,0,0,0-.12.28.28,0,0,1,.1-.2.8.8,0,0,1,.21-.13V16.36a1,1,0,0,1-.21-.17.3.3,0,0,1-.1-.18v-.2a.41.41,0,0,1-.28-.29.51.51,0,0,1-.31-.2,1.06,1.06,0,0,1-.36-.09.29.29,0,0,1-.21-.17H17.64Z"/></g></g></svg>