<svg xmlns="http://www.w3.org/2000/svg" viewBox="0 0 40 40"><defs><style>.cls-1{fill:#fff;}</style></defs><title>Ativo 1</title><g id="Camada_2" data-name="Camada 2"><g id="Camada_1-2" data-name="Camada 1"><path class="cls-1" d="M0,.13c.24-.17.19-.2.36.1q3.06,5.09,6.1,10.18l7,11.7L19.69,32.5c.28.48.57,1,.85,1.42a.57.57,0,0,1,.09.36c-.09.82-.17,1.63-.26,2.44L20.13,39c0,.27-.07.54-.1.81s0,.17-.17.17H.83c-.23,0-.23,0-.19-.3.27-2,.55-4,.82-6l.66-4.91a3.39,3.39,0,0,0,0-.71c0-.52-.07-1-.11-1.56-.06-.7-.11-1.41-.16-2.11,0-.52-.07-1-.11-1.54-.05-.69-.1-1.38-.16-2.07,0-.5-.07-1-.11-1.5l-.15-2.11c0-.52-.08-1-.11-1.54-.06-.69-.11-1.38-.16-2.07,0-.5-.07-1-.11-1.5-.05-.7-.1-1.41-.16-2.11,0-.51-.07-1-.11-1.52L.48,6.32c0-.5-.07-1-.11-1.5C.32,4.11.26,3.4.21,2.69c0-.52-.07-1-.11-1.56C.08.89.08.65,0,.42c0,0,0-.09,0-.12Z"/><path class="cls-1" d="M21.2,39.83c0-.4.07-.77.11-1.14.06-.64.12-1.28.19-1.91l.18-1.91c0-.27.05-.54.08-.81a.49.49,0,0,0-.06-.3l-3.06-5.12c-.14-.23-.14-.23,0-.45.78-1,1.57-2.06,2.35-3.1l4.1-5.38,2.93-3.85L31,12.05l2.93-3.84c.37-.5.75-1,1.13-1.48.09-.13.15-.13.24-.05a.15.15,0,0,1,0,.2l-.71,1.68-2.25,5.38q-1.53,3.65-3,7.29l-2.71,6.46L23,36.22l-1.49,3.56a.6.6,0,0,1-.08.16.12.12,0,0,1-.18,0C21.19,40,21.2,39.87,21.2,39.83Z"/><path class="cls-1" d="M39.87,14.48s-.1,0-.16-.05l-3.83-1.62-1.36-.58c-.22-.09-.24-.15-.12-.43.3-.73.6-1.47.91-2.21S36,7.83,36.4,7a2.6,2.6,0,0,1,.1-.25c.09-.16.21-.15.29,0L38,9.46,39.9,14a1,1,0,0,1,.09.24C40,14.41,40,14.47,39.87,14.48Z"/></g></g></svg>